<?xml version="1.0" standalone="no"?>
<!DOCTYPE svg PUBLIC "-//W3C//DTD SVG 20010904//EN"
 "http://www.w3.org/TR/2001/REC-SVG-20010904/DTD/svg10.dtd">
<svg version="1.0" xmlns="http://www.w3.org/2000/svg"
 width="500.000000pt" height="500.000000pt" viewBox="0 0 500.000000 500.000000"
 preserveAspectRatio="xMidYMid meet">

<g transform="translate(0.000000,500.000000) scale(0.100000,-0.100000)"
fill="#000000" stroke="none">
<path d="M0 2500 l0 -2500 2500 0 2500 0 0 2500 0 2500 -2500 0 -2500 0 0
-2500z m2241 1691 c99 -34 134 -57 169 -111 61 -94 82 -163 87 -279 5 -127 9
-151 27 -151 7 0 54 40 105 90 116 114 123 118 150 84 12 -15 21 -30 21 -35 0
-4 -30 -32 -67 -62 -38 -30 -105 -90 -150 -134 -94 -92 -88 -73 -103 -318 -6
-93 -15 -235 -21 -315 -5 -80 -14 -215 -19 -300 -22 -352 -34 -433 -90 -618
-19 -61 -60 -143 -124 -247 -36 -60 -145 -202 -175 -229 -12 -11 -21 -25 -21
-31 0 -14 44 -25 104 -25 64 0 167 -33 331 -105 284 -125 410 -155 662 -158
158 -2 213 16 297 96 64 61 86 120 86 231 0 94 -14 139 -57 187 -53 58 -104
81 -193 87 -66 4 -85 1 -144 -23 -63 -25 -69 -26 -84 -11 -35 34 35 88 137
106 139 25 270 -21 345 -121 56 -75 70 -119 70 -234 1 -123 -25 -202 -110
-330 -83 -126 -155 -198 -266 -268 -173 -108 -301 -122 -493 -54 -104 36 -152
55 -345 137 -168 70 -311 107 -460 116 -174 12 -243 -18 -406 -177 -45 -43
-86 -79 -91 -79 -6 0 -18 8 -27 19 -16 18 -12 24 106 157 68 77 151 166 183
199 184 186 307 421 335 637 5 40 14 96 19 123 10 47 17 151 41 590 6 105 17
260 25 345 22 246 38 534 33 604 -4 46 -16 85 -39 133 -30 61 -40 71 -88 96
-75 37 -192 39 -273 3 -150 -66 -242 -278 -193 -443 36 -120 112 -172 258
-176 68 -2 90 2 129 21 56 28 82 26 86 -6 5 -34 -12 -48 -85 -73 -54 -18 -80
-20 -152 -16 -113 7 -154 20 -207 69 -106 98 -135 219 -98 415 32 171 137 333
299 462 114 91 230 133 391 140 17 0 55 -7 85 -18z"/>
</g>
</svg>
